<mxfile host="app.diagrams.net" modified="2024-03-29T11:51:10.558Z" agent="Mozilla/5.0 (X11; Linux x86_64; rv:109.0) Gecko/20100101 Firefox/115.0" etag="DFMr_db7VLj5beFI29QS" version="24.2.0" type="device" pages="2">
  <diagram name="RenderWorld" id="sIVYXBJkjFY2A6ysjHX-">
    <mxGraphModel dx="3585" dy="1985" grid="1" gridSize="10" guides="1" tooltips="1" connect="1" arrows="1" fold="1" page="1" pageScale="1" pageWidth="1169" pageHeight="827" math="0" shadow="0">
      <root>
        <mxCell id="0" />
        <mxCell id="1" parent="0" />
        <mxCell id="NMwNA50rnmMx-DE3LajB-3" style="edgeStyle=orthogonalEdgeStyle;rounded=0;orthogonalLoop=1;jettySize=auto;html=1;exitX=0.5;exitY=1;exitDx=0;exitDy=0;entryX=0.5;entryY=0;entryDx=0;entryDy=0;" parent="1" source="NMwNA50rnmMx-DE3LajB-1" target="NMwNA50rnmMx-DE3LajB-2" edge="1">
          <mxGeometry relative="1" as="geometry" />
        </mxCell>
        <mxCell id="NMwNA50rnmMx-DE3LajB-1" value="Renderer" style="rounded=0;whiteSpace=wrap;html=1;" parent="1" vertex="1">
          <mxGeometry x="510" y="50" width="120" height="60" as="geometry" />
        </mxCell>
        <mxCell id="NMwNA50rnmMx-DE3LajB-7" style="rounded=0;orthogonalLoop=1;jettySize=auto;html=1;exitX=0.25;exitY=1;exitDx=0;exitDy=0;entryX=0.5;entryY=0;entryDx=0;entryDy=0;" parent="1" source="NMwNA50rnmMx-DE3LajB-2" target="NMwNA50rnmMx-DE3LajB-4" edge="1">
          <mxGeometry relative="1" as="geometry" />
        </mxCell>
        <mxCell id="NMwNA50rnmMx-DE3LajB-8" style="edgeStyle=none;rounded=0;orthogonalLoop=1;jettySize=auto;html=1;exitX=0.5;exitY=1;exitDx=0;exitDy=0;entryX=0.5;entryY=0;entryDx=0;entryDy=0;strokeColor=default;align=center;verticalAlign=middle;fontFamily=Helvetica;fontSize=11;fontColor=default;labelBackgroundColor=default;endArrow=classic;" parent="1" source="NMwNA50rnmMx-DE3LajB-2" target="NMwNA50rnmMx-DE3LajB-5" edge="1">
          <mxGeometry relative="1" as="geometry" />
        </mxCell>
        <mxCell id="NMwNA50rnmMx-DE3LajB-9" style="edgeStyle=none;rounded=0;orthogonalLoop=1;jettySize=auto;html=1;exitX=0.75;exitY=1;exitDx=0;exitDy=0;entryX=0.5;entryY=0;entryDx=0;entryDy=0;strokeColor=default;align=center;verticalAlign=middle;fontFamily=Helvetica;fontSize=11;fontColor=default;labelBackgroundColor=default;endArrow=classic;" parent="1" source="NMwNA50rnmMx-DE3LajB-2" target="NMwNA50rnmMx-DE3LajB-6" edge="1">
          <mxGeometry relative="1" as="geometry" />
        </mxCell>
        <mxCell id="NMwNA50rnmMx-DE3LajB-2" value="RenderPassGroups" style="rounded=0;whiteSpace=wrap;html=1;" parent="1" vertex="1">
          <mxGeometry x="510" y="170" width="120" height="60" as="geometry" />
        </mxCell>
        <mxCell id="NMwNA50rnmMx-DE3LajB-4" value="RenderPassGroup1" style="rounded=0;whiteSpace=wrap;html=1;" parent="1" vertex="1">
          <mxGeometry x="330" y="290" width="120" height="60" as="geometry" />
        </mxCell>
        <mxCell id="5yYQxLlGTZiuSxBwIvkd-4" style="rounded=0;orthogonalLoop=1;jettySize=auto;html=1;exitX=0.25;exitY=1;exitDx=0;exitDy=0;entryX=0.5;entryY=0;entryDx=0;entryDy=0;" parent="1" source="NMwNA50rnmMx-DE3LajB-5" target="5yYQxLlGTZiuSxBwIvkd-2" edge="1">
          <mxGeometry relative="1" as="geometry" />
        </mxCell>
        <mxCell id="5yYQxLlGTZiuSxBwIvkd-6" style="edgeStyle=none;rounded=0;orthogonalLoop=1;jettySize=auto;html=1;exitX=0.75;exitY=1;exitDx=0;exitDy=0;entryX=0.5;entryY=0;entryDx=0;entryDy=0;strokeColor=default;align=center;verticalAlign=middle;fontFamily=Helvetica;fontSize=11;fontColor=default;labelBackgroundColor=default;endArrow=classic;" parent="1" source="NMwNA50rnmMx-DE3LajB-5" target="NMwNA50rnmMx-DE3LajB-11" edge="1">
          <mxGeometry relative="1" as="geometry" />
        </mxCell>
        <mxCell id="NMwNA50rnmMx-DE3LajB-5" value="RenderPassGroup2" style="rounded=0;whiteSpace=wrap;html=1;" parent="1" vertex="1">
          <mxGeometry x="510" y="390" width="120" height="60" as="geometry" />
        </mxCell>
        <mxCell id="NMwNA50rnmMx-DE3LajB-6" value="RenderPassGroupN" style="rounded=0;whiteSpace=wrap;html=1;" parent="1" vertex="1">
          <mxGeometry x="690" y="290" width="120" height="60" as="geometry" />
        </mxCell>
        <mxCell id="NMwNA50rnmMx-DE3LajB-16" style="edgeStyle=none;rounded=0;orthogonalLoop=1;jettySize=auto;html=1;exitX=0.25;exitY=1;exitDx=0;exitDy=0;entryX=0.5;entryY=0;entryDx=0;entryDy=0;strokeColor=default;align=center;verticalAlign=middle;fontFamily=Helvetica;fontSize=11;fontColor=default;labelBackgroundColor=default;endArrow=classic;" parent="1" source="NMwNA50rnmMx-DE3LajB-11" target="NMwNA50rnmMx-DE3LajB-13" edge="1">
          <mxGeometry relative="1" as="geometry" />
        </mxCell>
        <mxCell id="NMwNA50rnmMx-DE3LajB-17" style="edgeStyle=none;rounded=0;orthogonalLoop=1;jettySize=auto;html=1;exitX=0.5;exitY=1;exitDx=0;exitDy=0;entryX=0.5;entryY=0;entryDx=0;entryDy=0;strokeColor=default;align=center;verticalAlign=middle;fontFamily=Helvetica;fontSize=11;fontColor=default;labelBackgroundColor=default;endArrow=classic;" parent="1" source="NMwNA50rnmMx-DE3LajB-11" target="NMwNA50rnmMx-DE3LajB-14" edge="1">
          <mxGeometry relative="1" as="geometry" />
        </mxCell>
        <mxCell id="NMwNA50rnmMx-DE3LajB-18" style="edgeStyle=none;rounded=0;orthogonalLoop=1;jettySize=auto;html=1;exitX=0.75;exitY=1;exitDx=0;exitDy=0;entryX=0.5;entryY=0;entryDx=0;entryDy=0;strokeColor=default;align=center;verticalAlign=middle;fontFamily=Helvetica;fontSize=11;fontColor=default;labelBackgroundColor=default;endArrow=classic;" parent="1" source="NMwNA50rnmMx-DE3LajB-11" target="NMwNA50rnmMx-DE3LajB-15" edge="1">
          <mxGeometry relative="1" as="geometry" />
        </mxCell>
        <mxCell id="NMwNA50rnmMx-DE3LajB-11" value="ShaderGroups" style="rounded=0;whiteSpace=wrap;html=1;" parent="1" vertex="1">
          <mxGeometry x="680" y="540" width="120" height="60" as="geometry" />
        </mxCell>
        <mxCell id="NMwNA50rnmMx-DE3LajB-13" value="&lt;div&gt;ShaderGroup1&lt;/div&gt;" style="rounded=0;whiteSpace=wrap;html=1;" parent="1" vertex="1">
          <mxGeometry x="400" y="710" width="120" height="60" as="geometry" />
        </mxCell>
        <mxCell id="5yYQxLlGTZiuSxBwIvkd-9" style="edgeStyle=none;rounded=0;orthogonalLoop=1;jettySize=auto;html=1;exitX=0.25;exitY=1;exitDx=0;exitDy=0;entryX=0.5;entryY=0;entryDx=0;entryDy=0;strokeColor=default;align=center;verticalAlign=middle;fontFamily=Helvetica;fontSize=11;fontColor=default;labelBackgroundColor=default;endArrow=classic;" parent="1" source="NMwNA50rnmMx-DE3LajB-14" target="5yYQxLlGTZiuSxBwIvkd-7" edge="1">
          <mxGeometry relative="1" as="geometry" />
        </mxCell>
        <mxCell id="5yYQxLlGTZiuSxBwIvkd-10" style="edgeStyle=none;rounded=0;orthogonalLoop=1;jettySize=auto;html=1;exitX=0.75;exitY=1;exitDx=0;exitDy=0;entryX=0.5;entryY=0;entryDx=0;entryDy=0;strokeColor=default;align=center;verticalAlign=middle;fontFamily=Helvetica;fontSize=11;fontColor=default;labelBackgroundColor=default;endArrow=classic;" parent="1" source="NMwNA50rnmMx-DE3LajB-14" target="5yYQxLlGTZiuSxBwIvkd-8" edge="1">
          <mxGeometry relative="1" as="geometry" />
        </mxCell>
        <mxCell id="NMwNA50rnmMx-DE3LajB-14" value="ShaderGroup2" style="rounded=0;whiteSpace=wrap;html=1;" parent="1" vertex="1">
          <mxGeometry x="680" y="840" width="120" height="60" as="geometry" />
        </mxCell>
        <mxCell id="NMwNA50rnmMx-DE3LajB-15" value="ShaderGroupN" style="rounded=0;whiteSpace=wrap;html=1;" parent="1" vertex="1">
          <mxGeometry x="960" y="710" width="120" height="60" as="geometry" />
        </mxCell>
        <mxCell id="NMwNA50rnmMx-DE3LajB-35" style="edgeStyle=none;rounded=0;orthogonalLoop=1;jettySize=auto;html=1;exitX=0.25;exitY=1;exitDx=0;exitDy=0;entryX=0.5;entryY=0;entryDx=0;entryDy=0;strokeColor=default;align=center;verticalAlign=middle;fontFamily=Helvetica;fontSize=11;fontColor=default;labelBackgroundColor=default;endArrow=classic;" parent="1" source="NMwNA50rnmMx-DE3LajB-19" target="NMwNA50rnmMx-DE3LajB-32" edge="1">
          <mxGeometry relative="1" as="geometry" />
        </mxCell>
        <mxCell id="NMwNA50rnmMx-DE3LajB-36" style="edgeStyle=none;rounded=0;orthogonalLoop=1;jettySize=auto;html=1;exitX=0.5;exitY=1;exitDx=0;exitDy=0;entryX=0.5;entryY=0;entryDx=0;entryDy=0;strokeColor=default;align=center;verticalAlign=middle;fontFamily=Helvetica;fontSize=11;fontColor=default;labelBackgroundColor=default;endArrow=classic;" parent="1" source="NMwNA50rnmMx-DE3LajB-19" target="NMwNA50rnmMx-DE3LajB-33" edge="1">
          <mxGeometry relative="1" as="geometry" />
        </mxCell>
        <mxCell id="NMwNA50rnmMx-DE3LajB-37" style="edgeStyle=none;rounded=0;orthogonalLoop=1;jettySize=auto;html=1;exitX=0.75;exitY=1;exitDx=0;exitDy=0;entryX=0.5;entryY=0;entryDx=0;entryDy=0;strokeColor=default;align=center;verticalAlign=middle;fontFamily=Helvetica;fontSize=11;fontColor=default;labelBackgroundColor=default;endArrow=classic;" parent="1" source="NMwNA50rnmMx-DE3LajB-19" target="NMwNA50rnmMx-DE3LajB-34" edge="1">
          <mxGeometry relative="1" as="geometry" />
        </mxCell>
        <mxCell id="NMwNA50rnmMx-DE3LajB-19" value="RenderGroups" style="rounded=0;whiteSpace=wrap;html=1;" parent="1" vertex="1">
          <mxGeometry x="1490" y="1120" width="120" height="60" as="geometry" />
        </mxCell>
        <mxCell id="NMwNA50rnmMx-DE3LajB-51" style="rounded=0;orthogonalLoop=1;jettySize=auto;html=1;exitX=0.25;exitY=1;exitDx=0;exitDy=0;dashed=1;strokeColor=default;align=center;verticalAlign=middle;fontFamily=Helvetica;fontSize=11;fontColor=default;labelBackgroundColor=default;endArrow=classic;dashPattern=8 8;entryX=0.25;entryY=0;entryDx=0;entryDy=0;" parent="1" source="NMwNA50rnmMx-DE3LajB-21" target="NMwNA50rnmMx-DE3LajB-52" edge="1">
          <mxGeometry relative="1" as="geometry">
            <mxPoint x="210" y="1540" as="targetPoint" />
          </mxGeometry>
        </mxCell>
        <mxCell id="NMwNA50rnmMx-DE3LajB-21" value="DataBuffer" style="rounded=0;whiteSpace=wrap;html=1;" parent="1" vertex="1">
          <mxGeometry x="560" y="1100" width="120" height="60" as="geometry" />
        </mxCell>
        <mxCell id="NMwNA50rnmMx-DE3LajB-28" style="edgeStyle=none;rounded=0;orthogonalLoop=1;jettySize=auto;html=1;exitX=0.25;exitY=1;exitDx=0;exitDy=0;entryX=0.5;entryY=0;entryDx=0;entryDy=0;strokeColor=default;align=center;verticalAlign=middle;fontFamily=Helvetica;fontSize=11;fontColor=default;labelBackgroundColor=default;endArrow=classic;" parent="1" source="NMwNA50rnmMx-DE3LajB-22" target="NMwNA50rnmMx-DE3LajB-25" edge="1">
          <mxGeometry relative="1" as="geometry" />
        </mxCell>
        <mxCell id="NMwNA50rnmMx-DE3LajB-29" style="edgeStyle=none;rounded=0;orthogonalLoop=1;jettySize=auto;html=1;exitX=0.5;exitY=1;exitDx=0;exitDy=0;entryX=0.5;entryY=0;entryDx=0;entryDy=0;strokeColor=default;align=center;verticalAlign=middle;fontFamily=Helvetica;fontSize=11;fontColor=default;labelBackgroundColor=default;endArrow=classic;" parent="1" source="NMwNA50rnmMx-DE3LajB-22" target="NMwNA50rnmMx-DE3LajB-26" edge="1">
          <mxGeometry relative="1" as="geometry" />
        </mxCell>
        <mxCell id="NMwNA50rnmMx-DE3LajB-30" style="edgeStyle=none;rounded=0;orthogonalLoop=1;jettySize=auto;html=1;exitX=0.75;exitY=1;exitDx=0;exitDy=0;entryX=0.5;entryY=0;entryDx=0;entryDy=0;strokeColor=default;align=center;verticalAlign=middle;fontFamily=Helvetica;fontSize=11;fontColor=default;labelBackgroundColor=default;endArrow=classic;" parent="1" source="NMwNA50rnmMx-DE3LajB-22" target="NMwNA50rnmMx-DE3LajB-27" edge="1">
          <mxGeometry relative="1" as="geometry" />
        </mxCell>
        <mxCell id="NMwNA50rnmMx-DE3LajB-22" value="DataIndexStorage" style="rounded=0;whiteSpace=wrap;html=1;" parent="1" vertex="1">
          <mxGeometry x="830" y="1200" width="120" height="60" as="geometry" />
        </mxCell>
        <mxCell id="NMwNA50rnmMx-DE3LajB-25" value="DataIndexBuffer1" style="rounded=0;whiteSpace=wrap;html=1;" parent="1" vertex="1">
          <mxGeometry x="640" y="1450" width="120" height="60" as="geometry" />
        </mxCell>
        <mxCell id="NMwNA50rnmMx-DE3LajB-26" value="DataIndexBuffer2" style="rounded=0;whiteSpace=wrap;html=1;" parent="1" vertex="1">
          <mxGeometry x="830" y="1560" width="120" height="60" as="geometry" />
        </mxCell>
        <mxCell id="NMwNA50rnmMx-DE3LajB-27" value="DataIndexBufferN" style="rounded=0;whiteSpace=wrap;html=1;" parent="1" vertex="1">
          <mxGeometry x="1010" y="1450" width="120" height="60" as="geometry" />
        </mxCell>
        <mxCell id="NMwNA50rnmMx-DE3LajB-32" value="RenderGroup1" style="rounded=0;whiteSpace=wrap;html=1;" parent="1" vertex="1">
          <mxGeometry x="1320" y="1300" width="120" height="60" as="geometry" />
        </mxCell>
        <mxCell id="NMwNA50rnmMx-DE3LajB-40" style="edgeStyle=none;rounded=0;orthogonalLoop=1;jettySize=auto;html=1;exitX=0.5;exitY=1;exitDx=0;exitDy=0;entryX=0.5;entryY=0;entryDx=0;entryDy=0;strokeColor=default;align=center;verticalAlign=middle;fontFamily=Helvetica;fontSize=11;fontColor=default;labelBackgroundColor=default;endArrow=classic;" parent="1" source="NMwNA50rnmMx-DE3LajB-33" target="NMwNA50rnmMx-DE3LajB-38" edge="1">
          <mxGeometry relative="1" as="geometry" />
        </mxCell>
        <mxCell id="NMwNA50rnmMx-DE3LajB-41" style="edgeStyle=none;rounded=0;orthogonalLoop=1;jettySize=auto;html=1;exitX=0.75;exitY=1;exitDx=0;exitDy=0;entryX=0.5;entryY=0;entryDx=0;entryDy=0;strokeColor=default;align=center;verticalAlign=middle;fontFamily=Helvetica;fontSize=11;fontColor=default;labelBackgroundColor=default;endArrow=classic;" parent="1" source="NMwNA50rnmMx-DE3LajB-33" target="NMwNA50rnmMx-DE3LajB-39" edge="1">
          <mxGeometry relative="1" as="geometry" />
        </mxCell>
        <mxCell id="NMwNA50rnmMx-DE3LajB-45" style="edgeStyle=none;rounded=0;orthogonalLoop=1;jettySize=auto;html=1;exitX=0.25;exitY=1;exitDx=0;exitDy=0;entryX=0.5;entryY=0;entryDx=0;entryDy=0;strokeColor=default;align=center;verticalAlign=middle;fontFamily=Helvetica;fontSize=11;fontColor=default;labelBackgroundColor=default;endArrow=classic;" parent="1" source="NMwNA50rnmMx-DE3LajB-33" target="NMwNA50rnmMx-DE3LajB-44" edge="1">
          <mxGeometry relative="1" as="geometry" />
        </mxCell>
        <mxCell id="NMwNA50rnmMx-DE3LajB-33" value="RenderGroup2" style="rounded=0;whiteSpace=wrap;html=1;" parent="1" vertex="1">
          <mxGeometry x="1490" y="1400" width="120" height="60" as="geometry" />
        </mxCell>
        <mxCell id="NMwNA50rnmMx-DE3LajB-34" value="RenderGroupN" style="rounded=0;whiteSpace=wrap;html=1;" parent="1" vertex="1">
          <mxGeometry x="1659" y="1310" width="120" height="60" as="geometry" />
        </mxCell>
        <mxCell id="NMwNA50rnmMx-DE3LajB-48" style="edgeStyle=orthogonalEdgeStyle;rounded=0;orthogonalLoop=1;jettySize=auto;html=1;exitX=0.5;exitY=1;exitDx=0;exitDy=0;entryX=0.5;entryY=0;entryDx=0;entryDy=0;dashed=1;strokeColor=default;align=center;verticalAlign=middle;fontFamily=Helvetica;fontSize=11;fontColor=default;labelBackgroundColor=default;endArrow=classic;curved=1;" parent="1" source="NMwNA50rnmMx-DE3LajB-38" target="NMwNA50rnmMx-DE3LajB-42" edge="1">
          <mxGeometry relative="1" as="geometry" />
        </mxCell>
        <mxCell id="NMwNA50rnmMx-DE3LajB-38" value="Material" style="rounded=0;whiteSpace=wrap;html=1;" parent="1" vertex="1">
          <mxGeometry x="1490" y="1670" width="120" height="60" as="geometry" />
        </mxCell>
        <mxCell id="NMwNA50rnmMx-DE3LajB-49" style="edgeStyle=orthogonalEdgeStyle;rounded=0;orthogonalLoop=1;jettySize=auto;html=1;exitX=0.5;exitY=1;exitDx=0;exitDy=0;entryX=0.5;entryY=0;entryDx=0;entryDy=0;dashed=1;strokeColor=default;align=center;verticalAlign=middle;fontFamily=Helvetica;fontSize=11;fontColor=default;labelBackgroundColor=default;endArrow=classic;curved=1;" parent="1" source="NMwNA50rnmMx-DE3LajB-39" target="NMwNA50rnmMx-DE3LajB-43" edge="1">
          <mxGeometry relative="1" as="geometry" />
        </mxCell>
        <mxCell id="NMwNA50rnmMx-DE3LajB-39" value="Mesh" style="rounded=0;whiteSpace=wrap;html=1;" parent="1" vertex="1">
          <mxGeometry x="1650" y="1550" width="120" height="60" as="geometry" />
        </mxCell>
        <mxCell id="NMwNA50rnmMx-DE3LajB-42" value="Materials" style="rounded=0;whiteSpace=wrap;html=1;" parent="1" vertex="1">
          <mxGeometry x="1490" y="1840" width="120" height="60" as="geometry" />
        </mxCell>
        <mxCell id="NMwNA50rnmMx-DE3LajB-43" value="Meshes" style="rounded=0;whiteSpace=wrap;html=1;" parent="1" vertex="1">
          <mxGeometry x="1790" y="1700" width="120" height="60" as="geometry" />
        </mxCell>
        <mxCell id="NMwNA50rnmMx-DE3LajB-47" style="edgeStyle=orthogonalEdgeStyle;rounded=0;orthogonalLoop=1;jettySize=auto;html=1;exitX=0;exitY=0.5;exitDx=0;exitDy=0;entryX=1;entryY=0.5;entryDx=0;entryDy=0;strokeColor=default;align=center;verticalAlign=middle;fontFamily=Helvetica;fontSize=11;fontColor=default;labelBackgroundColor=default;endArrow=classic;curved=1;dashed=1;" parent="1" source="NMwNA50rnmMx-DE3LajB-44" target="NMwNA50rnmMx-DE3LajB-22" edge="1">
          <mxGeometry relative="1" as="geometry">
            <Array as="points">
              <mxPoint x="1360" y="1550" />
              <mxPoint x="1300" y="1550" />
              <mxPoint x="1300" y="1540" />
              <mxPoint x="1270" y="1540" />
              <mxPoint x="1270" y="1310" />
              <mxPoint x="1000" y="1310" />
              <mxPoint x="1000" y="1230" />
            </Array>
          </mxGeometry>
        </mxCell>
        <mxCell id="NMwNA50rnmMx-DE3LajB-54" style="edgeStyle=none;rounded=0;orthogonalLoop=1;jettySize=auto;html=1;exitX=0.25;exitY=1;exitDx=0;exitDy=0;entryX=0.5;entryY=0;entryDx=0;entryDy=0;dashed=1;dashPattern=8 8;strokeColor=default;align=center;verticalAlign=middle;fontFamily=Helvetica;fontSize=11;fontColor=default;labelBackgroundColor=default;endArrow=classic;" parent="1" source="NMwNA50rnmMx-DE3LajB-44" target="NMwNA50rnmMx-DE3LajB-53" edge="1">
          <mxGeometry relative="1" as="geometry" />
        </mxCell>
        <mxCell id="NMwNA50rnmMx-DE3LajB-44" value="IndexRange" style="rounded=0;whiteSpace=wrap;html=1;" parent="1" vertex="1">
          <mxGeometry x="1360" y="1530" width="120" height="60" as="geometry" />
        </mxCell>
        <mxCell id="NMwNA50rnmMx-DE3LajB-52" value="&lt;h1&gt;Queue:&lt;/h1&gt;&lt;div style=&quot;font-size: 14px;&quot;&gt;remove -&amp;gt; noop&lt;/div&gt;&lt;div style=&quot;font-size: 14px;&quot;&gt;add -&amp;gt; push&lt;/div&gt;&lt;div style=&quot;font-size: 14px;&quot;&gt;update -&amp;gt; push&lt;br&gt;&lt;/div&gt;" style="text;html=1;spacing=5;spacingTop=-20;whiteSpace=wrap;overflow=hidden;rounded=0;fontFamily=Helvetica;fontSize=11;fontColor=default;labelBackgroundColor=default;" parent="1" vertex="1">
          <mxGeometry x="290" y="1210" width="110" height="110" as="geometry" />
        </mxCell>
        <mxCell id="NMwNA50rnmMx-DE3LajB-53" value="&lt;h1&gt;Queue:&lt;/h1&gt;&lt;font style=&quot;font-size: 14px;&quot;&gt;remove, add -&amp;gt; push&lt;/font&gt;" style="text;html=1;spacing=5;spacingTop=-20;whiteSpace=wrap;overflow=hidden;rounded=0;fontFamily=Helvetica;fontSize=11;fontColor=default;labelBackgroundColor=default;" parent="1" vertex="1">
          <mxGeometry x="1160" y="1654" width="140" height="60" as="geometry" />
        </mxCell>
        <mxCell id="NMwNA50rnmMx-DE3LajB-55" value="&lt;h1&gt;DataBufferQueue:&lt;/h1&gt;&lt;div style=&quot;font-size: 16px;&quot;&gt;&lt;b&gt;Remove object instance:&lt;/b&gt;&lt;/div&gt;&lt;div style=&quot;font-size: 16px;&quot;&gt;&lt;b&gt;&lt;span style=&quot;white-space: pre;&quot;&gt;&#x9;&lt;/span&gt;&lt;/b&gt;if !add.empty() -&amp;gt;&lt;/div&gt;&lt;div style=&quot;font-size: 16px;&quot;&gt;&lt;span style=&quot;white-space: pre;&quot;&gt;&#x9;&lt;/span&gt;&lt;span style=&quot;white-space: pre;&quot;&gt;&#x9;&lt;/span&gt;add new update op with remove bounds and add op data&lt;/div&gt;&lt;div style=&quot;font-size: 16px;&quot;&gt;&lt;span style=&quot;white-space: pre;&quot;&gt;&#x9;&lt;/span&gt;else&lt;br&gt;&lt;/div&gt;&lt;div style=&quot;font-size: 16px;&quot;&gt;&lt;b&gt;&lt;span style=&quot;white-space: pre;&quot;&gt;&#x9;&lt;/span&gt;&lt;/b&gt;&lt;span style=&quot;white-space: pre;&quot;&gt;&#x9;&lt;/span&gt;Push remove op into queue;&lt;/div&gt;&lt;div style=&quot;font-size: 16px;&quot;&gt;&lt;b&gt;Add object instance:&lt;/b&gt;&lt;/div&gt;&lt;div style=&quot;font-size: 16px;&quot;&gt;&lt;b&gt;&lt;span style=&quot;white-space: pre;&quot;&gt;&#x9;&lt;/span&gt;&lt;/b&gt;if !removes.empty() -&amp;gt; &lt;br&gt;&lt;/div&gt;&lt;div style=&quot;font-size: 16px;&quot;&gt;&lt;span style=&quot;white-space: pre;&quot;&gt;&#x9;&lt;/span&gt;&lt;span style=&quot;white-space: pre;&quot;&gt;&#x9;&lt;/span&gt;add new update op with remove op bounds&lt;/div&gt;&lt;div style=&quot;font-size: 16px;&quot;&gt;&lt;span style=&quot;white-space: pre;&quot;&gt;&#x9;&lt;/span&gt;else&lt;/div&gt;&lt;div style=&quot;font-size: 16px;&quot;&gt;&lt;span style=&quot;white-space: pre;&quot;&gt;&#x9;&lt;/span&gt;&lt;span style=&quot;white-space: pre;&quot;&gt;&#x9;&lt;/span&gt;Push add op into queue &lt;br&gt;&lt;/div&gt;&lt;div style=&quot;font-size: 16px;&quot;&gt;&lt;b&gt;Update object instance:&lt;/b&gt;&lt;/div&gt;&lt;div style=&quot;font-size: 16px;&quot;&gt;&lt;b&gt;&lt;span style=&quot;white-space: pre;&quot;&gt;&#x9;&lt;/span&gt;&lt;/b&gt;Push update op into queue&lt;br&gt;&lt;/div&gt;&lt;div style=&quot;font-size: 16px;&quot;&gt;&lt;b&gt;&lt;span style=&quot;white-space: pre;&quot;&gt;&#x9;&lt;/span&gt;&lt;br&gt;&lt;/b&gt;&lt;/div&gt;" style="text;html=1;spacing=5;spacingTop=-20;whiteSpace=wrap;overflow=hidden;rounded=0;fontFamily=Helvetica;fontSize=11;fontColor=default;labelBackgroundColor=default;" parent="1" vertex="1">
          <mxGeometry x="300" y="1820" width="590" height="370" as="geometry" />
        </mxCell>
        <mxCell id="5yYQxLlGTZiuSxBwIvkd-2" value="RenderPass" style="rounded=0;whiteSpace=wrap;html=1;" parent="1" vertex="1">
          <mxGeometry x="310" y="540" width="120" height="60" as="geometry" />
        </mxCell>
        <mxCell id="5yYQxLlGTZiuSxBwIvkd-7" value="Shader" style="rounded=0;whiteSpace=wrap;html=1;" parent="1" vertex="1">
          <mxGeometry x="520" y="950" width="120" height="60" as="geometry" />
        </mxCell>
        <mxCell id="5yYQxLlGTZiuSxBwIvkd-11" style="edgeStyle=none;rounded=0;orthogonalLoop=1;jettySize=auto;html=1;exitX=0.25;exitY=1;exitDx=0;exitDy=0;entryX=0.5;entryY=0;entryDx=0;entryDy=0;strokeColor=default;align=center;verticalAlign=middle;fontFamily=Helvetica;fontSize=11;fontColor=default;labelBackgroundColor=default;endArrow=classic;" parent="1" source="5yYQxLlGTZiuSxBwIvkd-8" target="NMwNA50rnmMx-DE3LajB-21" edge="1">
          <mxGeometry relative="1" as="geometry" />
        </mxCell>
        <mxCell id="5yYQxLlGTZiuSxBwIvkd-12" style="edgeStyle=none;rounded=0;orthogonalLoop=1;jettySize=auto;html=1;exitX=0.5;exitY=1;exitDx=0;exitDy=0;entryX=0.5;entryY=0;entryDx=0;entryDy=0;strokeColor=default;align=center;verticalAlign=middle;fontFamily=Helvetica;fontSize=11;fontColor=default;labelBackgroundColor=default;endArrow=classic;" parent="1" source="5yYQxLlGTZiuSxBwIvkd-8" target="NMwNA50rnmMx-DE3LajB-22" edge="1">
          <mxGeometry relative="1" as="geometry" />
        </mxCell>
        <mxCell id="5yYQxLlGTZiuSxBwIvkd-13" style="edgeStyle=none;rounded=0;orthogonalLoop=1;jettySize=auto;html=1;exitX=0.75;exitY=1;exitDx=0;exitDy=0;entryX=0.5;entryY=0;entryDx=0;entryDy=0;strokeColor=default;align=center;verticalAlign=middle;fontFamily=Helvetica;fontSize=11;fontColor=default;labelBackgroundColor=default;endArrow=classic;" parent="1" source="5yYQxLlGTZiuSxBwIvkd-8" target="NMwNA50rnmMx-DE3LajB-19" edge="1">
          <mxGeometry relative="1" as="geometry" />
        </mxCell>
        <mxCell id="5yYQxLlGTZiuSxBwIvkd-8" value="Resources" style="rounded=0;whiteSpace=wrap;html=1;" parent="1" vertex="1">
          <mxGeometry x="830" y="950" width="120" height="60" as="geometry" />
        </mxCell>
      </root>
    </mxGraphModel>
  </diagram>
  <diagram id="ZNsZ2ZzeNz-ZkS1iUVbS" name="World">
    <mxGraphModel dx="2390" dy="1323" grid="1" gridSize="10" guides="1" tooltips="1" connect="1" arrows="1" fold="1" page="1" pageScale="1" pageWidth="1169" pageHeight="827" math="0" shadow="0">
      <root>
        <mxCell id="0" />
        <mxCell id="1" parent="0" />
        <mxCell id="EGoQyh29g5yufYc0M7cy-3" style="rounded=0;orthogonalLoop=1;jettySize=auto;html=1;exitX=0.75;exitY=1;exitDx=0;exitDy=0;entryX=0.5;entryY=0;entryDx=0;entryDy=0;" edge="1" parent="1" source="EGoQyh29g5yufYc0M7cy-1" target="EGoQyh29g5yufYc0M7cy-2">
          <mxGeometry relative="1" as="geometry" />
        </mxCell>
        <mxCell id="EGoQyh29g5yufYc0M7cy-5" style="edgeStyle=none;rounded=0;orthogonalLoop=1;jettySize=auto;html=1;exitX=0.25;exitY=1;exitDx=0;exitDy=0;entryX=0.5;entryY=0;entryDx=0;entryDy=0;strokeColor=default;align=center;verticalAlign=middle;fontFamily=Helvetica;fontSize=11;fontColor=default;labelBackgroundColor=default;endArrow=classic;" edge="1" parent="1" source="EGoQyh29g5yufYc0M7cy-1" target="EGoQyh29g5yufYc0M7cy-4">
          <mxGeometry relative="1" as="geometry" />
        </mxCell>
        <mxCell id="EGoQyh29g5yufYc0M7cy-1" value="World" style="rounded=0;whiteSpace=wrap;html=1;" vertex="1" parent="1">
          <mxGeometry x="400" y="50" width="120" height="60" as="geometry" />
        </mxCell>
        <mxCell id="EGoQyh29g5yufYc0M7cy-10" style="edgeStyle=none;rounded=0;orthogonalLoop=1;jettySize=auto;html=1;exitX=0.25;exitY=1;exitDx=0;exitDy=0;entryX=0.5;entryY=0;entryDx=0;entryDy=0;strokeColor=default;align=center;verticalAlign=middle;fontFamily=Helvetica;fontSize=11;fontColor=default;labelBackgroundColor=default;endArrow=classic;" edge="1" parent="1" source="EGoQyh29g5yufYc0M7cy-2" target="EGoQyh29g5yufYc0M7cy-6">
          <mxGeometry relative="1" as="geometry" />
        </mxCell>
        <mxCell id="EGoQyh29g5yufYc0M7cy-11" style="edgeStyle=none;rounded=0;orthogonalLoop=1;jettySize=auto;html=1;exitX=0.5;exitY=1;exitDx=0;exitDy=0;entryX=0.5;entryY=0;entryDx=0;entryDy=0;strokeColor=default;align=center;verticalAlign=middle;fontFamily=Helvetica;fontSize=11;fontColor=default;labelBackgroundColor=default;endArrow=classic;" edge="1" parent="1" source="EGoQyh29g5yufYc0M7cy-2" target="EGoQyh29g5yufYc0M7cy-7">
          <mxGeometry relative="1" as="geometry" />
        </mxCell>
        <mxCell id="EGoQyh29g5yufYc0M7cy-12" style="edgeStyle=none;rounded=0;orthogonalLoop=1;jettySize=auto;html=1;exitX=0.75;exitY=1;exitDx=0;exitDy=0;entryX=0.5;entryY=0;entryDx=0;entryDy=0;strokeColor=default;align=center;verticalAlign=middle;fontFamily=Helvetica;fontSize=11;fontColor=default;labelBackgroundColor=default;endArrow=classic;" edge="1" parent="1" source="EGoQyh29g5yufYc0M7cy-2" target="EGoQyh29g5yufYc0M7cy-8">
          <mxGeometry relative="1" as="geometry" />
        </mxCell>
        <mxCell id="EGoQyh29g5yufYc0M7cy-2" value="Objects" style="rounded=0;whiteSpace=wrap;html=1;" vertex="1" parent="1">
          <mxGeometry x="550" y="170" width="120" height="60" as="geometry" />
        </mxCell>
        <mxCell id="EGoQyh29g5yufYc0M7cy-4" value="TransferChannel" style="rounded=0;whiteSpace=wrap;html=1;" vertex="1" parent="1">
          <mxGeometry x="260" y="170" width="120" height="60" as="geometry" />
        </mxCell>
        <mxCell id="EGoQyh29g5yufYc0M7cy-6" value="Object1" style="rounded=0;whiteSpace=wrap;html=1;" vertex="1" parent="1">
          <mxGeometry x="390" y="294" width="120" height="60" as="geometry" />
        </mxCell>
        <mxCell id="EGoQyh29g5yufYc0M7cy-15" style="edgeStyle=none;rounded=0;orthogonalLoop=1;jettySize=auto;html=1;exitX=0.5;exitY=1;exitDx=0;exitDy=0;entryX=0.5;entryY=0;entryDx=0;entryDy=0;strokeColor=default;align=center;verticalAlign=middle;fontFamily=Helvetica;fontSize=11;fontColor=default;labelBackgroundColor=default;endArrow=classic;" edge="1" parent="1" source="EGoQyh29g5yufYc0M7cy-7" target="EGoQyh29g5yufYc0M7cy-13">
          <mxGeometry relative="1" as="geometry" />
        </mxCell>
        <mxCell id="EGoQyh29g5yufYc0M7cy-16" style="edgeStyle=none;rounded=0;orthogonalLoop=1;jettySize=auto;html=1;exitX=0.75;exitY=1;exitDx=0;exitDy=0;entryX=0.5;entryY=0;entryDx=0;entryDy=0;strokeColor=default;align=center;verticalAlign=middle;fontFamily=Helvetica;fontSize=11;fontColor=default;labelBackgroundColor=default;endArrow=classic;" edge="1" parent="1" source="EGoQyh29g5yufYc0M7cy-7" target="EGoQyh29g5yufYc0M7cy-14">
          <mxGeometry relative="1" as="geometry" />
        </mxCell>
        <mxCell id="EGoQyh29g5yufYc0M7cy-27" style="edgeStyle=none;rounded=0;orthogonalLoop=1;jettySize=auto;html=1;exitX=0.25;exitY=1;exitDx=0;exitDy=0;entryX=0.5;entryY=0;entryDx=0;entryDy=0;strokeColor=default;align=center;verticalAlign=middle;fontFamily=Helvetica;fontSize=11;fontColor=default;labelBackgroundColor=default;endArrow=classic;" edge="1" parent="1" source="EGoQyh29g5yufYc0M7cy-7" target="EGoQyh29g5yufYc0M7cy-26">
          <mxGeometry relative="1" as="geometry" />
        </mxCell>
        <mxCell id="EGoQyh29g5yufYc0M7cy-7" value="Object2" style="rounded=0;whiteSpace=wrap;html=1;" vertex="1" parent="1">
          <mxGeometry x="550" y="410" width="120" height="60" as="geometry" />
        </mxCell>
        <mxCell id="EGoQyh29g5yufYc0M7cy-8" value="ObjectN" style="rounded=0;whiteSpace=wrap;html=1;" vertex="1" parent="1">
          <mxGeometry x="730" y="294" width="120" height="60" as="geometry" />
        </mxCell>
        <mxCell id="EGoQyh29g5yufYc0M7cy-20" style="edgeStyle=none;rounded=0;orthogonalLoop=1;jettySize=auto;html=1;exitX=0.25;exitY=1;exitDx=0;exitDy=0;entryX=0.5;entryY=0;entryDx=0;entryDy=0;strokeColor=default;align=center;verticalAlign=middle;fontFamily=Helvetica;fontSize=11;fontColor=default;labelBackgroundColor=default;endArrow=classic;" edge="1" parent="1" source="EGoQyh29g5yufYc0M7cy-13" target="EGoQyh29g5yufYc0M7cy-17">
          <mxGeometry relative="1" as="geometry" />
        </mxCell>
        <mxCell id="EGoQyh29g5yufYc0M7cy-21" style="edgeStyle=none;rounded=0;orthogonalLoop=1;jettySize=auto;html=1;exitX=0.5;exitY=1;exitDx=0;exitDy=0;entryX=0.5;entryY=0;entryDx=0;entryDy=0;strokeColor=default;align=center;verticalAlign=middle;fontFamily=Helvetica;fontSize=11;fontColor=default;labelBackgroundColor=default;endArrow=classic;" edge="1" parent="1" source="EGoQyh29g5yufYc0M7cy-13" target="EGoQyh29g5yufYc0M7cy-18">
          <mxGeometry relative="1" as="geometry" />
        </mxCell>
        <mxCell id="EGoQyh29g5yufYc0M7cy-22" style="edgeStyle=none;rounded=0;orthogonalLoop=1;jettySize=auto;html=1;exitX=0.75;exitY=1;exitDx=0;exitDy=0;entryX=0.5;entryY=0;entryDx=0;entryDy=0;strokeColor=default;align=center;verticalAlign=middle;fontFamily=Helvetica;fontSize=11;fontColor=default;labelBackgroundColor=default;endArrow=classic;" edge="1" parent="1" source="EGoQyh29g5yufYc0M7cy-13" target="EGoQyh29g5yufYc0M7cy-19">
          <mxGeometry relative="1" as="geometry" />
        </mxCell>
        <mxCell id="EGoQyh29g5yufYc0M7cy-13" value="Meshes" style="rounded=0;whiteSpace=wrap;html=1;" vertex="1" parent="1">
          <mxGeometry x="550" y="590" width="120" height="60" as="geometry" />
        </mxCell>
        <mxCell id="EGoQyh29g5yufYc0M7cy-34" style="edgeStyle=none;rounded=0;orthogonalLoop=1;jettySize=auto;html=1;exitX=0.25;exitY=1;exitDx=0;exitDy=0;entryX=0.5;entryY=0;entryDx=0;entryDy=0;strokeColor=default;align=center;verticalAlign=middle;fontFamily=Helvetica;fontSize=11;fontColor=default;labelBackgroundColor=default;endArrow=classic;" edge="1" parent="1" source="EGoQyh29g5yufYc0M7cy-14" target="EGoQyh29g5yufYc0M7cy-31">
          <mxGeometry relative="1" as="geometry" />
        </mxCell>
        <mxCell id="EGoQyh29g5yufYc0M7cy-35" style="edgeStyle=none;rounded=0;orthogonalLoop=1;jettySize=auto;html=1;exitX=0.5;exitY=1;exitDx=0;exitDy=0;entryX=0.5;entryY=0;entryDx=0;entryDy=0;strokeColor=default;align=center;verticalAlign=middle;fontFamily=Helvetica;fontSize=11;fontColor=default;labelBackgroundColor=default;endArrow=classic;" edge="1" parent="1" source="EGoQyh29g5yufYc0M7cy-14" target="EGoQyh29g5yufYc0M7cy-32">
          <mxGeometry relative="1" as="geometry" />
        </mxCell>
        <mxCell id="EGoQyh29g5yufYc0M7cy-36" style="edgeStyle=none;rounded=0;orthogonalLoop=1;jettySize=auto;html=1;exitX=0.75;exitY=1;exitDx=0;exitDy=0;entryX=0.5;entryY=0;entryDx=0;entryDy=0;strokeColor=default;align=center;verticalAlign=middle;fontFamily=Helvetica;fontSize=11;fontColor=default;labelBackgroundColor=default;endArrow=classic;" edge="1" parent="1" source="EGoQyh29g5yufYc0M7cy-14" target="EGoQyh29g5yufYc0M7cy-33">
          <mxGeometry relative="1" as="geometry" />
        </mxCell>
        <mxCell id="EGoQyh29g5yufYc0M7cy-14" value="ObjectInstances" style="rounded=0;whiteSpace=wrap;html=1;" vertex="1" parent="1">
          <mxGeometry x="980" y="550" width="120" height="60" as="geometry" />
        </mxCell>
        <mxCell id="EGoQyh29g5yufYc0M7cy-17" value="Mesh1" style="rounded=0;whiteSpace=wrap;html=1;" vertex="1" parent="1">
          <mxGeometry x="440" y="700" width="120" height="60" as="geometry" />
        </mxCell>
        <mxCell id="EGoQyh29g5yufYc0M7cy-43" style="edgeStyle=none;rounded=0;orthogonalLoop=1;jettySize=auto;html=1;exitX=0.25;exitY=1;exitDx=0;exitDy=0;entryX=0.5;entryY=0;entryDx=0;entryDy=0;strokeColor=default;align=center;verticalAlign=middle;fontFamily=Helvetica;fontSize=11;fontColor=default;labelBackgroundColor=default;endArrow=classic;" edge="1" parent="1" source="EGoQyh29g5yufYc0M7cy-18" target="EGoQyh29g5yufYc0M7cy-40">
          <mxGeometry relative="1" as="geometry" />
        </mxCell>
        <mxCell id="EGoQyh29g5yufYc0M7cy-44" style="edgeStyle=none;rounded=0;orthogonalLoop=1;jettySize=auto;html=1;exitX=0.5;exitY=1;exitDx=0;exitDy=0;entryX=0.5;entryY=0;entryDx=0;entryDy=0;strokeColor=default;align=center;verticalAlign=middle;fontFamily=Helvetica;fontSize=11;fontColor=default;labelBackgroundColor=default;endArrow=classic;" edge="1" parent="1" source="EGoQyh29g5yufYc0M7cy-18" target="EGoQyh29g5yufYc0M7cy-41">
          <mxGeometry relative="1" as="geometry" />
        </mxCell>
        <mxCell id="EGoQyh29g5yufYc0M7cy-46" style="edgeStyle=none;rounded=0;orthogonalLoop=1;jettySize=auto;html=1;exitX=0.75;exitY=1;exitDx=0;exitDy=0;entryX=0.5;entryY=0;entryDx=0;entryDy=0;strokeColor=default;align=center;verticalAlign=middle;fontFamily=Helvetica;fontSize=11;fontColor=default;labelBackgroundColor=default;endArrow=classic;" edge="1" parent="1" source="EGoQyh29g5yufYc0M7cy-18" target="EGoQyh29g5yufYc0M7cy-42">
          <mxGeometry relative="1" as="geometry" />
        </mxCell>
        <mxCell id="EGoQyh29g5yufYc0M7cy-18" value="Mesh2" style="rounded=0;whiteSpace=wrap;html=1;" vertex="1" parent="1">
          <mxGeometry x="550" y="800" width="120" height="60" as="geometry" />
        </mxCell>
        <mxCell id="EGoQyh29g5yufYc0M7cy-19" value="MeshN" style="rounded=0;whiteSpace=wrap;html=1;" vertex="1" parent="1">
          <mxGeometry x="680" y="700" width="120" height="60" as="geometry" />
        </mxCell>
        <mxCell id="EGoQyh29g5yufYc0M7cy-24" value="VertexBuffer" style="rounded=0;whiteSpace=wrap;html=1;" vertex="1" parent="1">
          <mxGeometry x="80" y="620" width="120" height="60" as="geometry" />
        </mxCell>
        <mxCell id="EGoQyh29g5yufYc0M7cy-25" value="IndexBuffer" style="rounded=0;whiteSpace=wrap;html=1;" vertex="1" parent="1">
          <mxGeometry x="270" y="620" width="120" height="60" as="geometry" />
        </mxCell>
        <mxCell id="EGoQyh29g5yufYc0M7cy-28" style="edgeStyle=none;rounded=0;orthogonalLoop=1;jettySize=auto;html=1;exitX=0.25;exitY=1;exitDx=0;exitDy=0;entryX=0.5;entryY=0;entryDx=0;entryDy=0;strokeColor=default;align=center;verticalAlign=middle;fontFamily=Helvetica;fontSize=11;fontColor=default;labelBackgroundColor=default;endArrow=classic;" edge="1" parent="1" source="EGoQyh29g5yufYc0M7cy-26" target="EGoQyh29g5yufYc0M7cy-24">
          <mxGeometry relative="1" as="geometry" />
        </mxCell>
        <mxCell id="EGoQyh29g5yufYc0M7cy-29" style="edgeStyle=none;rounded=0;orthogonalLoop=1;jettySize=auto;html=1;exitX=0.75;exitY=1;exitDx=0;exitDy=0;entryX=0.5;entryY=0;entryDx=0;entryDy=0;strokeColor=default;align=center;verticalAlign=middle;fontFamily=Helvetica;fontSize=11;fontColor=default;labelBackgroundColor=default;endArrow=classic;" edge="1" parent="1" source="EGoQyh29g5yufYc0M7cy-26" target="EGoQyh29g5yufYc0M7cy-25">
          <mxGeometry relative="1" as="geometry" />
        </mxCell>
        <mxCell id="EGoQyh29g5yufYc0M7cy-26" value="Resources" style="rounded=0;whiteSpace=wrap;html=1;" vertex="1" parent="1">
          <mxGeometry x="190" y="510" width="120" height="60" as="geometry" />
        </mxCell>
        <mxCell id="EGoQyh29g5yufYc0M7cy-31" value="ObjectInstance1" style="rounded=0;whiteSpace=wrap;html=1;" vertex="1" parent="1">
          <mxGeometry x="860" y="670" width="120" height="60" as="geometry" />
        </mxCell>
        <mxCell id="EGoQyh29g5yufYc0M7cy-39" style="edgeStyle=none;rounded=0;orthogonalLoop=1;jettySize=auto;html=1;exitX=0.25;exitY=1;exitDx=0;exitDy=0;entryX=0.5;entryY=0;entryDx=0;entryDy=0;strokeColor=default;align=center;verticalAlign=middle;fontFamily=Helvetica;fontSize=11;fontColor=default;labelBackgroundColor=default;endArrow=classic;" edge="1" parent="1" source="EGoQyh29g5yufYc0M7cy-32" target="EGoQyh29g5yufYc0M7cy-38">
          <mxGeometry relative="1" as="geometry" />
        </mxCell>
        <mxCell id="EGoQyh29g5yufYc0M7cy-48" style="edgeStyle=none;rounded=0;orthogonalLoop=1;jettySize=auto;html=1;exitX=0.5;exitY=1;exitDx=0;exitDy=0;entryX=0.5;entryY=0;entryDx=0;entryDy=0;strokeColor=default;align=center;verticalAlign=middle;fontFamily=Helvetica;fontSize=11;fontColor=default;labelBackgroundColor=default;endArrow=classic;" edge="1" parent="1" source="EGoQyh29g5yufYc0M7cy-32" target="EGoQyh29g5yufYc0M7cy-47">
          <mxGeometry relative="1" as="geometry" />
        </mxCell>
        <mxCell id="EGoQyh29g5yufYc0M7cy-72" style="edgeStyle=none;rounded=0;orthogonalLoop=1;jettySize=auto;html=1;exitX=0.75;exitY=1;exitDx=0;exitDy=0;entryX=0.5;entryY=0;entryDx=0;entryDy=0;strokeColor=default;align=center;verticalAlign=middle;fontFamily=Helvetica;fontSize=11;fontColor=default;labelBackgroundColor=default;endArrow=classic;" edge="1" parent="1" source="EGoQyh29g5yufYc0M7cy-32" target="EGoQyh29g5yufYc0M7cy-71">
          <mxGeometry relative="1" as="geometry" />
        </mxCell>
        <mxCell id="EGoQyh29g5yufYc0M7cy-32" value="ObjectInstance2" style="rounded=0;whiteSpace=wrap;html=1;" vertex="1" parent="1">
          <mxGeometry x="980" y="810" width="120" height="60" as="geometry" />
        </mxCell>
        <mxCell id="EGoQyh29g5yufYc0M7cy-33" value="ObjectInstanceN" style="rounded=0;whiteSpace=wrap;html=1;" vertex="1" parent="1">
          <mxGeometry x="1100" y="670" width="120" height="60" as="geometry" />
        </mxCell>
        <mxCell id="EGoQyh29g5yufYc0M7cy-38" value="Data" style="rounded=0;whiteSpace=wrap;html=1;" vertex="1" parent="1">
          <mxGeometry x="840" y="900" width="120" height="60" as="geometry" />
        </mxCell>
        <mxCell id="EGoQyh29g5yufYc0M7cy-40" value="Count" style="rounded=0;whiteSpace=wrap;html=1;" vertex="1" parent="1">
          <mxGeometry x="430" y="910" width="120" height="60" as="geometry" />
        </mxCell>
        <mxCell id="EGoQyh29g5yufYc0M7cy-41" value="IndexBufferOffset" style="rounded=0;whiteSpace=wrap;html=1;" vertex="1" parent="1">
          <mxGeometry x="550" y="990" width="120" height="60" as="geometry" />
        </mxCell>
        <mxCell id="EGoQyh29g5yufYc0M7cy-42" value="VertexBufferOffset" style="rounded=0;whiteSpace=wrap;html=1;" vertex="1" parent="1">
          <mxGeometry x="670" y="910" width="120" height="60" as="geometry" />
        </mxCell>
        <mxCell id="EGoQyh29g5yufYc0M7cy-52" style="edgeStyle=none;rounded=0;orthogonalLoop=1;jettySize=auto;html=1;exitX=0.25;exitY=1;exitDx=0;exitDy=0;entryX=0.5;entryY=0;entryDx=0;entryDy=0;strokeColor=default;align=center;verticalAlign=middle;fontFamily=Helvetica;fontSize=11;fontColor=default;labelBackgroundColor=default;endArrow=classic;" edge="1" parent="1" source="EGoQyh29g5yufYc0M7cy-47" target="EGoQyh29g5yufYc0M7cy-49">
          <mxGeometry relative="1" as="geometry" />
        </mxCell>
        <mxCell id="EGoQyh29g5yufYc0M7cy-53" style="edgeStyle=none;rounded=0;orthogonalLoop=1;jettySize=auto;html=1;entryX=0.5;entryY=0;entryDx=0;entryDy=0;strokeColor=default;align=center;verticalAlign=middle;fontFamily=Helvetica;fontSize=11;fontColor=default;labelBackgroundColor=default;endArrow=classic;exitX=0.5;exitY=1;exitDx=0;exitDy=0;" edge="1" parent="1" source="EGoQyh29g5yufYc0M7cy-47" target="EGoQyh29g5yufYc0M7cy-50">
          <mxGeometry relative="1" as="geometry">
            <mxPoint x="1050" y="1150" as="sourcePoint" />
          </mxGeometry>
        </mxCell>
        <mxCell id="EGoQyh29g5yufYc0M7cy-54" style="edgeStyle=none;rounded=0;orthogonalLoop=1;jettySize=auto;html=1;exitX=0.75;exitY=1;exitDx=0;exitDy=0;entryX=0.5;entryY=0;entryDx=0;entryDy=0;strokeColor=default;align=center;verticalAlign=middle;fontFamily=Helvetica;fontSize=11;fontColor=default;labelBackgroundColor=default;endArrow=classic;" edge="1" parent="1" source="EGoQyh29g5yufYc0M7cy-47" target="EGoQyh29g5yufYc0M7cy-51">
          <mxGeometry relative="1" as="geometry" />
        </mxCell>
        <mxCell id="EGoQyh29g5yufYc0M7cy-47" value="MeshBindings" style="rounded=0;whiteSpace=wrap;html=1;" vertex="1" parent="1">
          <mxGeometry x="980" y="1050" width="120" height="60" as="geometry" />
        </mxCell>
        <mxCell id="EGoQyh29g5yufYc0M7cy-49" value="MeshBinding1" style="rounded=0;whiteSpace=wrap;html=1;" vertex="1" parent="1">
          <mxGeometry x="860" y="1160" width="120" height="60" as="geometry" />
        </mxCell>
        <mxCell id="EGoQyh29g5yufYc0M7cy-58" style="edgeStyle=none;rounded=0;orthogonalLoop=1;jettySize=auto;html=1;exitX=0.25;exitY=1;exitDx=0;exitDy=0;entryX=0.5;entryY=0;entryDx=0;entryDy=0;strokeColor=default;align=center;verticalAlign=middle;fontFamily=Helvetica;fontSize=11;fontColor=default;labelBackgroundColor=default;endArrow=classic;" edge="1" parent="1" source="EGoQyh29g5yufYc0M7cy-50" target="EGoQyh29g5yufYc0M7cy-56">
          <mxGeometry relative="1" as="geometry" />
        </mxCell>
        <mxCell id="EGoQyh29g5yufYc0M7cy-59" style="edgeStyle=none;rounded=0;orthogonalLoop=1;jettySize=auto;html=1;exitX=0.75;exitY=1;exitDx=0;exitDy=0;entryX=0.5;entryY=0;entryDx=0;entryDy=0;strokeColor=default;align=center;verticalAlign=middle;fontFamily=Helvetica;fontSize=11;fontColor=default;labelBackgroundColor=default;endArrow=classic;" edge="1" parent="1" source="EGoQyh29g5yufYc0M7cy-50" target="EGoQyh29g5yufYc0M7cy-57">
          <mxGeometry relative="1" as="geometry" />
        </mxCell>
        <mxCell id="EGoQyh29g5yufYc0M7cy-50" value="MeshBinding2" style="rounded=0;whiteSpace=wrap;html=1;" vertex="1" parent="1">
          <mxGeometry x="980" y="1250" width="120" height="60" as="geometry" />
        </mxCell>
        <mxCell id="EGoQyh29g5yufYc0M7cy-51" value="MeshBindingN" style="rounded=0;whiteSpace=wrap;html=1;" vertex="1" parent="1">
          <mxGeometry x="1100" y="1170" width="120" height="60" as="geometry" />
        </mxCell>
        <mxCell id="EGoQyh29g5yufYc0M7cy-56" value="Mesh" style="rounded=0;whiteSpace=wrap;html=1;" vertex="1" parent="1">
          <mxGeometry x="870" y="1370" width="120" height="60" as="geometry" />
        </mxCell>
        <mxCell id="EGoQyh29g5yufYc0M7cy-64" style="edgeStyle=none;rounded=0;orthogonalLoop=1;jettySize=auto;html=1;exitX=0.25;exitY=1;exitDx=0;exitDy=0;entryX=0.5;entryY=0;entryDx=0;entryDy=0;strokeColor=default;align=center;verticalAlign=middle;fontFamily=Helvetica;fontSize=11;fontColor=default;labelBackgroundColor=default;endArrow=classic;" edge="1" parent="1" source="EGoQyh29g5yufYc0M7cy-57" target="EGoQyh29g5yufYc0M7cy-60">
          <mxGeometry relative="1" as="geometry" />
        </mxCell>
        <mxCell id="EGoQyh29g5yufYc0M7cy-65" style="edgeStyle=none;rounded=0;orthogonalLoop=1;jettySize=auto;html=1;exitX=0.5;exitY=1;exitDx=0;exitDy=0;entryX=0.5;entryY=0;entryDx=0;entryDy=0;strokeColor=default;align=center;verticalAlign=middle;fontFamily=Helvetica;fontSize=11;fontColor=default;labelBackgroundColor=default;endArrow=classic;" edge="1" parent="1" source="EGoQyh29g5yufYc0M7cy-57" target="EGoQyh29g5yufYc0M7cy-61">
          <mxGeometry relative="1" as="geometry" />
        </mxCell>
        <mxCell id="EGoQyh29g5yufYc0M7cy-66" style="edgeStyle=none;rounded=0;orthogonalLoop=1;jettySize=auto;html=1;exitX=0.75;exitY=1;exitDx=0;exitDy=0;entryX=0.5;entryY=0;entryDx=0;entryDy=0;strokeColor=default;align=center;verticalAlign=middle;fontFamily=Helvetica;fontSize=11;fontColor=default;labelBackgroundColor=default;endArrow=classic;" edge="1" parent="1" source="EGoQyh29g5yufYc0M7cy-57" target="EGoQyh29g5yufYc0M7cy-62">
          <mxGeometry relative="1" as="geometry" />
        </mxCell>
        <mxCell id="EGoQyh29g5yufYc0M7cy-57" value="MaterialBindings" style="rounded=0;whiteSpace=wrap;html=1;" vertex="1" parent="1">
          <mxGeometry x="1080" y="1370" width="120" height="60" as="geometry" />
        </mxCell>
        <mxCell id="EGoQyh29g5yufYc0M7cy-60" value="MaterialBinding1" style="rounded=0;whiteSpace=wrap;html=1;" vertex="1" parent="1">
          <mxGeometry x="960" y="1480" width="120" height="60" as="geometry" />
        </mxCell>
        <mxCell id="EGoQyh29g5yufYc0M7cy-68" style="edgeStyle=none;rounded=0;orthogonalLoop=1;jettySize=auto;html=1;exitX=0.25;exitY=1;exitDx=0;exitDy=0;entryX=0.5;entryY=0;entryDx=0;entryDy=0;strokeColor=default;align=center;verticalAlign=middle;fontFamily=Helvetica;fontSize=11;fontColor=default;labelBackgroundColor=default;endArrow=classic;" edge="1" parent="1" source="EGoQyh29g5yufYc0M7cy-61" target="EGoQyh29g5yufYc0M7cy-67">
          <mxGeometry relative="1" as="geometry" />
        </mxCell>
        <mxCell id="EGoQyh29g5yufYc0M7cy-70" style="edgeStyle=none;rounded=0;orthogonalLoop=1;jettySize=auto;html=1;exitX=0.75;exitY=1;exitDx=0;exitDy=0;entryX=0.5;entryY=0;entryDx=0;entryDy=0;strokeColor=default;align=center;verticalAlign=middle;fontFamily=Helvetica;fontSize=11;fontColor=default;labelBackgroundColor=default;endArrow=classic;" edge="1" parent="1" source="EGoQyh29g5yufYc0M7cy-61" target="EGoQyh29g5yufYc0M7cy-69">
          <mxGeometry relative="1" as="geometry" />
        </mxCell>
        <mxCell id="EGoQyh29g5yufYc0M7cy-61" value="MaterialBinding2" style="rounded=0;whiteSpace=wrap;html=1;" vertex="1" parent="1">
          <mxGeometry x="1080" y="1590" width="120" height="60" as="geometry" />
        </mxCell>
        <mxCell id="EGoQyh29g5yufYc0M7cy-62" value="MaterialBindingN" style="rounded=0;whiteSpace=wrap;html=1;" vertex="1" parent="1">
          <mxGeometry x="1200" y="1490" width="120" height="60" as="geometry" />
        </mxCell>
        <mxCell id="EGoQyh29g5yufYc0M7cy-67" value="Material" style="rounded=0;whiteSpace=wrap;html=1;" vertex="1" parent="1">
          <mxGeometry x="980" y="1690" width="120" height="60" as="geometry" />
        </mxCell>
        <mxCell id="EGoQyh29g5yufYc0M7cy-69" value="InstanceIndex" style="rounded=0;whiteSpace=wrap;html=1;" vertex="1" parent="1">
          <mxGeometry x="1169" y="1690" width="120" height="60" as="geometry" />
        </mxCell>
        <mxCell id="EGoQyh29g5yufYc0M7cy-76" style="edgeStyle=none;rounded=0;orthogonalLoop=1;jettySize=auto;html=1;exitX=0.25;exitY=1;exitDx=0;exitDy=0;entryX=0.5;entryY=0;entryDx=0;entryDy=0;strokeColor=default;align=center;verticalAlign=middle;fontFamily=Helvetica;fontSize=11;fontColor=default;labelBackgroundColor=default;endArrow=classic;" edge="1" parent="1" source="EGoQyh29g5yufYc0M7cy-71" target="EGoQyh29g5yufYc0M7cy-73">
          <mxGeometry relative="1" as="geometry" />
        </mxCell>
        <mxCell id="EGoQyh29g5yufYc0M7cy-77" style="edgeStyle=none;rounded=0;orthogonalLoop=1;jettySize=auto;html=1;exitX=0.5;exitY=1;exitDx=0;exitDy=0;entryX=0.5;entryY=0;entryDx=0;entryDy=0;strokeColor=default;align=center;verticalAlign=middle;fontFamily=Helvetica;fontSize=11;fontColor=default;labelBackgroundColor=default;endArrow=classic;" edge="1" parent="1" source="EGoQyh29g5yufYc0M7cy-71" target="EGoQyh29g5yufYc0M7cy-74">
          <mxGeometry relative="1" as="geometry" />
        </mxCell>
        <mxCell id="EGoQyh29g5yufYc0M7cy-78" style="edgeStyle=none;rounded=0;orthogonalLoop=1;jettySize=auto;html=1;exitX=0.75;exitY=1;exitDx=0;exitDy=0;entryX=0.5;entryY=0;entryDx=0;entryDy=0;strokeColor=default;align=center;verticalAlign=middle;fontFamily=Helvetica;fontSize=11;fontColor=default;labelBackgroundColor=default;endArrow=classic;" edge="1" parent="1" source="EGoQyh29g5yufYc0M7cy-71" target="EGoQyh29g5yufYc0M7cy-75">
          <mxGeometry relative="1" as="geometry" />
        </mxCell>
        <mxCell id="EGoQyh29g5yufYc0M7cy-71" value="ShaderDataBindings" style="rounded=0;whiteSpace=wrap;html=1;" vertex="1" parent="1">
          <mxGeometry x="1300" y="900" width="120" height="60" as="geometry" />
        </mxCell>
        <mxCell id="EGoQyh29g5yufYc0M7cy-73" value="ShaderDataBinding1" style="rounded=0;whiteSpace=wrap;html=1;" vertex="1" parent="1">
          <mxGeometry x="1190" y="1010" width="120" height="60" as="geometry" />
        </mxCell>
        <mxCell id="EGoQyh29g5yufYc0M7cy-81" style="edgeStyle=none;rounded=0;orthogonalLoop=1;jettySize=auto;html=1;exitX=0.25;exitY=1;exitDx=0;exitDy=0;entryX=0.5;entryY=0;entryDx=0;entryDy=0;strokeColor=default;align=center;verticalAlign=middle;fontFamily=Helvetica;fontSize=11;fontColor=default;labelBackgroundColor=default;endArrow=classic;" edge="1" parent="1" source="EGoQyh29g5yufYc0M7cy-74" target="EGoQyh29g5yufYc0M7cy-79">
          <mxGeometry relative="1" as="geometry" />
        </mxCell>
        <mxCell id="EGoQyh29g5yufYc0M7cy-82" style="edgeStyle=none;rounded=0;orthogonalLoop=1;jettySize=auto;html=1;exitX=0.75;exitY=1;exitDx=0;exitDy=0;entryX=0.5;entryY=0;entryDx=0;entryDy=0;strokeColor=default;align=center;verticalAlign=middle;fontFamily=Helvetica;fontSize=11;fontColor=default;labelBackgroundColor=default;endArrow=classic;" edge="1" parent="1" source="EGoQyh29g5yufYc0M7cy-74" target="EGoQyh29g5yufYc0M7cy-80">
          <mxGeometry relative="1" as="geometry" />
        </mxCell>
        <mxCell id="EGoQyh29g5yufYc0M7cy-74" value="ShaderDataBinding2" style="rounded=0;whiteSpace=wrap;html=1;" vertex="1" parent="1">
          <mxGeometry x="1300" y="1100" width="120" height="60" as="geometry" />
        </mxCell>
        <mxCell id="EGoQyh29g5yufYc0M7cy-75" value="ShaderDataBindingN" style="rounded=0;whiteSpace=wrap;html=1;" vertex="1" parent="1">
          <mxGeometry x="1430" y="1010" width="120" height="60" as="geometry" />
        </mxCell>
        <mxCell id="EGoQyh29g5yufYc0M7cy-79" value="Shader" style="rounded=0;whiteSpace=wrap;html=1;" vertex="1" parent="1">
          <mxGeometry x="1220" y="1260" width="120" height="60" as="geometry" />
        </mxCell>
        <mxCell id="EGoQyh29g5yufYc0M7cy-80" value="DataIndex" style="rounded=0;whiteSpace=wrap;html=1;" vertex="1" parent="1">
          <mxGeometry x="1380" y="1260" width="120" height="60" as="geometry" />
        </mxCell>
      </root>
    </mxGraphModel>
  </diagram>
</mxfile>
